<svg height="32" id="Layer_1" style="enable-background:new 0 0 32 32" version="1.1" width="32" xml:space="preserve" xmlns="http://www.w3.org/2000/svg"><path d="m-544.88-165.121-7.342-7.342a14.147 14.147 0 0 1-4.242 4.242l7.343 7.342a2.997 2.997 0 0 0 4.241 0 2.997 2.997 0 0 0 0-4.242zM-552-180c0-6.627-5.373-12-12-12s-12 5.373-12 12 5.373 12 12 12 12-5.373 12-12zm-12 9c-4.964 0-9-4.036-9-9 0-4.963 4.036-9 9-9 4.963 0 9 4.037 9 9 0 4.964-4.037 9-9 9z" transform="translate(576 192)"/><path d="M-571-180h2c0-2.757 2.242-5 5-5v-2c-3.86 0-7 3.142-7 7z" transform="translate(576 192)"/></svg>